<svg width="24" height="24" viewBox="0 0 24 24" xmlns="http://www.w3.org/2000/svg">
<path d="M12.001 19.7106C17.5239 19.7106 22 15.9708 22 11.3553C22 6.73979 17.5239 3 12.001 3C6.47814 3 2.00203 6.73979 2.00203 11.3553C2.00203 13.1669 2.69337 14.842 3.86512 16.2118C3.79091 17.1959 3.41985 18.0716 3.02927 18.7385C2.81445 19.108 2.59572 19.4053 2.43558 19.6061C2.35356 19.7065 2.29106 19.7829 2.24419 19.8351C2.22076 19.8592 2.20513 19.8793 2.19342 19.8913L2.1817 19.9034C2.00203 20.0881 1.95125 20.3613 2.0489 20.6023C2.14655 20.8433 2.37309 21 2.62697 21C3.74795 21 4.87674 20.6425 5.81414 20.2247C6.70858 19.823 7.47022 19.345 7.93502 18.9955C9.17708 19.4575 10.5519 19.7146 12.001 19.7146V19.7106ZM7.00152 10.0699C7.33301 10.0699 7.65092 10.2053 7.88532 10.4463C8.11971 10.6874 8.2514 11.0144 8.2514 11.3553C8.2514 11.6962 8.11971 12.0231 7.88532 12.2642C7.65092 12.5053 7.33301 12.6407 7.00152 12.6407C6.67003 12.6407 6.35212 12.5053 6.11773 12.2642C5.88333 12.0231 5.75165 11.6962 5.75165 11.3553C5.75165 11.0144 5.88333 10.6874 6.11773 10.4463C6.35212 10.2053 6.67003 10.0699 7.00152 10.0699ZM12.001 10.0699C12.3325 10.0699 12.6504 10.2053 12.8848 10.4463C13.1192 10.6874 13.2509 11.0144 13.2509 11.3553C13.2509 11.6962 13.1192 12.0231 12.8848 12.2642C12.6504 12.5053 12.3325 12.6407 12.001 12.6407C11.6695 12.6407 11.3516 12.5053 11.1172 12.2642C10.8828 12.0231 10.7511 11.6962 10.7511 11.3553C10.7511 11.0144 10.8828 10.6874 11.1172 10.4463C11.3516 10.2053 11.6695 10.0699 12.001 10.0699ZM15.7506 11.3553C15.7506 11.0144 15.8823 10.6874 16.1167 10.4463C16.3511 10.2053 16.669 10.0699 17.0005 10.0699C17.332 10.0699 17.6499 10.2053 17.8843 10.4463C18.1187 10.6874 18.2504 11.0144 18.2504 11.3553C18.2504 11.6962 18.1187 12.0231 17.8843 12.2642C17.6499 12.5053 17.332 12.6407 17.0005 12.6407C16.669 12.6407 16.3511 12.5053 16.1167 12.2642C15.8823 12.0231 15.7506 11.6962 15.7506 11.3553Z" />
</svg>
