<svg width="24" height="24" viewBox="0 0 24 24" xmlns="http://www.w3.org/2000/svg">
<path d="M4.5 7.625C4.99728 7.625 5.47419 7.42746 5.82583 7.07583C6.17746 6.72419 6.375 6.24728 6.375 5.75C6.375 5.25272 6.17746 4.77581 5.82583 4.42417C5.47419 4.07254 4.99728 3.875 4.5 3.875C4.00272 3.875 3.52581 4.07254 3.17417 4.42417C2.82254 4.77581 2.625 5.25272 2.625 5.75C2.625 6.24728 2.82254 6.72419 3.17417 7.07583C3.52581 7.42746 4.00272 7.625 4.5 7.625ZM9.5 4.5C8.80859 4.5 8.25 5.05859 8.25 5.75C8.25 6.44141 8.80859 7 9.5 7H20.75C21.4414 7 22 6.44141 22 5.75C22 5.05859 21.4414 4.5 20.75 4.5H9.5ZM9.5 10.75C8.80859 10.75 8.25 11.3086 8.25 12C8.25 12.6914 8.80859 13.25 9.5 13.25H20.75C21.4414 13.25 22 12.6914 22 12C22 11.3086 21.4414 10.75 20.75 10.75H9.5ZM9.5 17C8.80859 17 8.25 17.5586 8.25 18.25C8.25 18.9414 8.80859 19.5 9.5 19.5H20.75C21.4414 19.5 22 18.9414 22 18.25C22 17.5586 21.4414 17 20.75 17H9.5ZM4.5 20.125C4.99728 20.125 5.47419 19.9275 5.82583 19.5758C6.17746 19.2242 6.375 18.7473 6.375 18.25C6.375 17.7527 6.17746 17.2758 5.82583 16.9242C5.47419 16.5725 4.99728 16.375 4.5 16.375C4.00272 16.375 3.52581 16.5725 3.17417 16.9242C2.82254 17.2758 2.625 17.7527 2.625 18.25C2.625 18.7473 2.82254 19.2242 3.17417 19.5758C3.52581 19.9275 4.00272 20.125 4.5 20.125ZM6.375 12C6.375 11.7538 6.3265 11.51 6.23227 11.2825C6.13805 11.055 5.99993 10.8483 5.82583 10.6742C5.65172 10.5001 5.44502 10.362 5.21753 10.2677C4.99005 10.1735 4.74623 10.125 4.5 10.125C4.25377 10.125 4.00995 10.1735 3.78247 10.2677C3.55498 10.362 3.34828 10.5001 3.17417 10.6742C3.00006 10.8483 2.86195 11.055 2.76773 11.2825C2.6735 11.51 2.625 11.7538 2.625 12C2.625 12.2462 2.6735 12.49 2.76773 12.7175C2.86195 12.945 3.00006 13.1517 3.17417 13.3258C3.34828 13.4999 3.55498 13.638 3.78247 13.7323C4.00995 13.8265 4.25377 13.875 4.5 13.875C4.74623 13.875 4.99005 13.8265 5.21753 13.7323C5.44502 13.638 5.65172 13.4999 5.82583 13.3258C5.99993 13.1517 6.13805 12.945 6.23227 12.7175C6.3265 12.49 6.375 12.2462 6.375 12Z"/>
</svg>
