<svg width="14" height="14" viewBox="0 0 14 14" xmlns="http://www.w3.org/2000/svg">
<path d="M7.00002 12.8334C8.54714 12.8334 10.0308 12.2188 11.1248 11.1249C12.2188 10.0309 12.8334 8.5472 12.8334 7.00008C12.8334 5.45299 12.2188 3.96926 11.1248 2.87529C10.0308 1.78133 8.54714 1.16675 7.00002 1.16675C5.45293 1.16675 3.9692 1.78133 2.87523 2.87529C1.78127 3.96926 1.16669 5.45299 1.16669 7.00008C1.16669 8.5472 1.78127 10.0309 2.87523 11.1249C3.9692 12.2188 5.45293 12.8334 7.00002 12.8334ZM9.57491 5.92914L6.65824 8.84581C6.44404 9.05995 6.09766 9.05995 5.88574 8.84581L4.42743 7.38747C4.21324 7.17327 4.21324 6.82689 4.42743 6.61496C4.64162 6.4031 4.98798 6.40082 5.19989 6.61496L6.27085 7.68596L8.80013 5.15438C9.01433 4.94019 9.36071 4.94019 9.57264 5.15438C9.7845 5.36857 9.78678 5.71492 9.57264 5.92686L9.57491 5.92914Z" />
</svg>
