<svg width="14" height="14" viewBox="0 0 14 14" xmlns="http://www.w3.org/2000/svg">
<path d="M6.89582 0.583496H9.96602C10.2802 0.583496 10.582 0.711328 10.8047 0.936914L12.4845 2.63884C12.7072 2.86442 12.8333 3.17022 12.8333 3.48854V9.00537C12.8333 9.66961 12.3014 10.2085 11.6458 10.2085H6.89582C6.24021 10.2085 5.70833 9.66961 5.70833 9.00537V1.78662C5.70833 1.1224 6.24021 0.583496 6.89582 0.583496ZM2.9375 3.79183H4.91667V5.396H3.33334V11.8127H8.08331V11.0106H9.66665V12.2137C9.66665 12.8779 9.13477 13.4168 8.47916 13.4168H2.9375C2.2819 13.4168 1.75 12.8779 1.75 12.2137V4.99495C1.75 4.33073 2.2819 3.79183 2.9375 3.79183Z" />
</svg>
