<svg width="24" height="24" viewBox="0 0 24 24" xmlns="http://www.w3.org/2000/svg">
<g clip-path="url(#clip0_123_7)">
<path d="M11.8214 1H17.0846C17.6232 1 18.1406 1.21914 18.5223 1.60586L21.402 4.52344C21.7837 4.91016 22 5.43438 22 5.98008V15.4375C22 16.5762 21.0882 17.5 19.9643 17.5H11.8214C10.6975 17.5 9.78571 16.5762 9.78571 15.4375V3.0625C9.78571 1.92383 10.6975 1 11.8214 1ZM5.03571 6.5H8.42857V9.25H5.71429V20.25H13.8571V18.875H16.5714V20.9375C16.5714 22.0762 15.6596 23 14.5357 23H5.03571C3.91183 23 3 22.0762 3 20.9375V8.5625C3 7.42383 3.91183 6.5 5.03571 6.5Z" fill="black"/>
</g>
<defs>
<clipPath id="clip0_123_7">
<rect width="19" height="22" transform="translate(3 1)"/>
</clipPath>
</defs>
</svg>
