<svg width="24" height="24" viewBox="0 0 24 24" xmlns="http://www.w3.org/2000/svg">
<path d="M11.5021 3.78278L1.78125 13.5226C0.739583 14.5663 0.739583 16.2571 1.78125 17.3008L5.11458 20.6406C5.61458 21.1416 6.29375 21.4213 7.00208 21.4213L11.3896 21.4255H11.7812H20.7229C21.4604 21.4255 22.0562 20.8285 22.0562 20.0896C22.0562 19.3506 21.4604 18.7536 20.7229 18.7536H15.5521L20.9979 13.2972C22.0396 12.2535 22.0396 10.5627 20.9979 9.51896L15.2771 3.78278C14.2354 2.73907 12.5479 2.73907 11.5062 3.78278H11.5021ZM11.7812 18.7536H11.3896H6.99792L3.66458 15.4138L8.86042 10.2078L14.5854 15.944L11.7812 18.7536Z" />
</svg>
