<svg width="18" height="14" viewBox="0 0 18 14" xmlns="http://www.w3.org/2000/svg">
<path d="M1.09139 0.139604C0.798894 -0.0846101 0.374214 -0.0326581 0.143593 0.251711C-0.0870279 0.536079 -0.0335913 0.948961 0.258904 1.17317L16.9086 13.8604C17.2011 14.0846 17.6258 14.0327 17.8564 13.7483C18.087 13.4639 18.0336 13.051 17.7411 12.8268L14.7824 10.5738C15.8961 9.46362 16.6499 8.2195 17.0295 7.33632C17.1224 7.12031 17.1224 6.87969 17.0295 6.66368C16.6105 5.68753 15.7302 4.26569 14.414 3.07899C13.0921 1.88136 11.2725 0.875135 9 0.875135C7.08191 0.875135 5.48444 1.59426 4.23852 2.5376L1.09139 0.139604ZM6.27474 4.08795C6.99191 3.45086 7.95096 3.06259 9 3.06259C11.2359 3.06259 13.0499 4.82622 13.0499 7C13.0499 7.68084 12.8727 8.32067 12.5606 8.87847L11.475 8.05271C11.7112 7.52499 11.7731 6.9207 11.61 6.32189C11.2978 5.18715 10.2656 4.42428 9.11812 4.37779C8.955 4.37232 8.85938 4.54459 8.91 4.69771C8.96906 4.8727 9.00281 5.05864 9.00281 5.25277C9.00281 5.53167 8.93531 5.79417 8.81719 6.02658L6.27755 4.09069L6.27474 4.08795ZM10.4906 10.6612C10.0294 10.839 9.52593 10.9374 9 10.9374C6.7641 10.9374 4.95007 9.17378 4.95007 7C4.95007 6.81133 4.96413 6.62813 4.98945 6.44767L2.3373 4.41607C1.69607 5.22816 1.23764 6.03752 0.970454 6.66368C0.877643 6.87969 0.877643 7.12031 0.970454 7.33632C1.38951 8.31247 2.26981 9.73431 3.58603 10.921C4.90788 12.1186 6.72754 13.1249 9 13.1249C10.3444 13.1249 11.5284 12.7721 12.5493 12.2362L10.4906 10.6612Z" />
</svg>
