<svg width="18" height="14" viewBox="0 0 18 14" xmlns="http://www.w3.org/2000/svg">
<path d="M8.99906 0.875C6.7266 0.875 4.90694 1.88123 3.58228 3.07886C2.26605 4.26555 1.38575 5.68739 0.96951 6.66354C0.8767 6.87956 0.8767 7.12018 0.96951 7.33619C1.38575 8.31234 2.26605 9.73418 3.58228 10.9209C4.90694 12.1185 6.7266 13.1247 8.99906 13.1247C11.2715 13.1247 13.0912 12.1185 14.4158 10.9209C15.7321 9.73145 16.6124 8.31234 17.0314 7.33619C17.1242 7.12018 17.1242 6.87956 17.0314 6.66354C16.6124 5.68739 15.7321 4.26555 14.4158 3.07886C13.0912 1.88123 11.2715 0.875 8.99906 0.875ZM4.94913 6.99987C4.94913 5.9556 5.37582 4.9541 6.13533 4.21569C6.89483 3.47729 7.92495 3.06245 8.99906 3.06245C10.0732 3.06245 11.1033 3.47729 11.8628 4.21569C12.6223 4.9541 13.049 5.9556 13.049 6.99987C13.049 8.04413 12.6223 9.04563 11.8628 9.78404C11.1033 10.5224 10.0732 10.9373 8.99906 10.9373C7.92495 10.9373 6.89483 10.5224 6.13533 9.78404C5.37582 9.04563 4.94913 8.04413 4.94913 6.99987ZM8.99906 5.2499C8.99906 6.21512 8.19188 6.99987 7.19909 6.99987C6.99941 6.99987 6.80816 6.96705 6.62816 6.90963C6.47348 6.86042 6.29348 6.95338 6.2991 7.11197C6.30754 7.30064 6.33567 7.48931 6.3891 7.67798C6.77441 9.07794 8.25657 9.90918 9.69655 9.53458C11.1365 9.15997 11.9915 7.71899 11.6062 6.31902C11.294 5.18428 10.2618 4.42141 9.11437 4.37492C8.95125 4.36945 8.85562 4.54172 8.90625 4.69484C8.96531 4.86983 8.99906 5.05577 8.99906 5.2499Z" />
</svg>
