<svg width="24" height="25" viewBox="0 0 24 25" xmlns="http://www.w3.org/2000/svg">
<path d="M10.8659 3.60103C9.40832 3.586 8.23772 4.75661 8.25275 6.21419L8.36606 17.2058C8.39199 19.7208 10.45 21.7788 12.965 21.8047C15.4799 21.8307 17.4959 19.8146 17.47 17.2997L17.3764 8.21964C17.3697 7.5685 17.8959 7.04232 18.547 7.04904C19.1981 7.05575 19.7353 7.59289 19.742 8.24402L19.8356 17.3241C19.875 21.1473 16.8125 24.2097 12.9893 24.1703C9.16617 24.1309 6.03988 21.0046 6.00047 17.1814L5.88715 6.18981C5.85864 3.42397 8.07569 1.20693 10.8415 1.23544C13.6074 1.26395 15.8706 3.52719 15.8991 6.29302L16.0075 16.8068C16.0251 18.5152 14.6535 19.8869 12.945 19.8692C11.2365 19.8516 9.83634 18.4514 9.81872 16.743L9.73004 8.14081C9.72333 7.48967 10.2495 6.96349 10.9006 6.97021C11.5518 6.97692 12.0889 7.51406 12.0956 8.1652L12.1843 16.7673C12.1884 17.1676 12.5204 17.4995 12.9206 17.5037C13.3209 17.5078 13.646 17.1826 13.6419 16.7824L13.5335 6.26863C13.5185 4.81105 12.3235 3.61606 10.8659 3.60103Z" />
</svg>
