<svg width="24" height="24" viewBox="0 0 24 24" xmlns="http://www.w3.org/2000/svg">
<path d="M20.9501 8.18363C21.0695 8.50654 20.9688 8.86658 20.7114 9.0967L19.0963 10.5591C19.1373 10.8672 19.1597 11.1827 19.1597 11.5019C19.1597 11.8211 19.1373 12.1365 19.0963 12.4446L20.7114 13.907C20.9688 14.1371 21.0695 14.4972 20.9501 14.8201C20.786 15.2618 20.5883 15.6849 20.3608 16.0932L20.1855 16.3938C19.9393 16.8021 19.6633 17.1881 19.3611 17.5519C19.1411 17.8191 18.7755 17.9082 18.4473 17.8043L16.3697 17.1473C15.8699 17.5296 15.3178 17.8488 14.7285 18.0901L14.2622 20.2094C14.1876 20.5472 13.9265 20.8144 13.5834 20.8701C13.0686 20.9555 12.539 21 11.9981 21C11.4573 21 10.9276 20.9555 10.4129 20.8701C10.0697 20.8144 9.80863 20.5472 9.73403 20.2094L9.26779 18.0901C8.67845 17.8488 8.12641 17.5296 7.62659 17.1473L5.55272 17.808C5.22448 17.9119 4.85894 17.8191 4.63887 17.5556C4.33674 17.1918 4.06072 16.8058 3.81455 16.3975L3.63924 16.0969C3.41171 15.6886 3.21402 15.2655 3.0499 14.8238C2.93054 14.5009 3.03125 14.1408 3.28862 13.9107L4.9037 12.4483C4.86267 12.1366 4.84029 11.8211 4.84029 11.5019C4.84029 11.1827 4.86267 10.8672 4.9037 10.5591L3.28862 9.0967C3.03125 8.86658 2.93054 8.50654 3.0499 8.18363C3.21402 7.74194 3.41171 7.31881 3.63924 6.91053L3.81455 6.60988C4.06072 6.2016 4.33674 5.81559 4.63887 5.45185C4.85894 5.18461 5.22448 5.09553 5.55272 5.19945L7.63032 5.85642C8.13014 5.47412 8.68218 5.15491 9.27152 4.91366L9.73776 2.7943C9.81236 2.45653 10.0735 2.18929 10.4166 2.13362C10.9314 2.04454 11.461 2 12.0019 2C12.5427 2 13.0724 2.04454 13.5871 2.12991C13.9303 2.18558 14.1914 2.45282 14.266 2.79058L14.7322 4.90994C15.3216 5.1512 15.8736 5.4704 16.3734 5.85271L18.451 5.19574C18.7793 5.09181 19.1448 5.18461 19.3649 5.44813C19.667 5.81188 19.943 6.19789 20.1892 6.60617L20.3645 6.90682C20.592 7.3151 20.7897 7.73823 20.9538 8.17992L20.9501 8.18363ZM12.0019 14.4712C12.7933 14.4712 13.5523 14.1583 14.1119 13.6015C14.6715 13.0446 14.9859 12.2894 14.9859 11.5019C14.9859 10.7143 14.6715 9.95908 14.1119 9.40222C13.5523 8.84537 12.7933 8.53253 12.0019 8.53253C11.2105 8.53253 10.4515 8.84537 9.89187 9.40222C9.33226 9.95908 9.01788 10.7143 9.01788 11.5019C9.01788 12.2894 9.33226 13.0446 9.89187 13.6015C10.4515 14.1583 11.2105 14.4712 12.0019 14.4712Z" />
</svg>
