<svg xmlns="http://www.w3.org/2000/svg" viewBox="0 0 411.67 411.76"><path d="M0,205.83C-.44,91.75,93.92-2,209.5,0c110.22,1.9,202.71,92,202.17,206.87-.53,112.66-91.1,203.71-203.57,204.84C90.4,412.94-.56,317.32,0,205.83Zm34.43-.23C33.91,299,109.94,377,205.67,377.36c93.12.36,170.89-76.05,171.58-169.29C377.94,113,302.1,35.34,208.13,34.4,111.63,33.44,34.24,111.32,34.43,205.6Z"/><path d="M186.26,293.64V197.32c-5.54,0-10.9.08-16.25,0a15.88,15.88,0,0,1-15.51-13.58c-1.12-8.25,3.42-15.56,11.23-17.87a19,19,0,0,1,5.29-.76q15.36-.1,30.71,0c10.27.07,17,6.89,17,17.16q0,53.82,0,107.64v3.8c5.26,0,10.18,0,15.11,0,6.12,0,11.12,2.32,14.46,7.57a15.34,15.34,0,0,1,.75,16c-2.81,5.48-7.49,8.69-13.7,8.72q-32.93.19-65.85,0c-8.22-.05-14.85-7-15.22-15.28A15.89,15.89,0,0,1,168,294a69.38,69.38,0,0,1,7.9-.31C179.27,293.61,182.63,293.64,186.26,293.64Z"/><path d="M202.49,84.73a24.2,24.2,0,1,1,0,48.4,24.2,24.2,0,0,1,0-48.4Z"/></svg>