<svg width="24" height="24" viewBox="0 0 24 24" xmlns="http://www.w3.org/2000/svg">
<path d="M16.7617 6.13672L21.5586 10.9336C21.8398 11.2148 22 11.6016 22 12C22 12.3984 21.8398 12.7852 21.5586 13.0664L16.7617 17.8633C16.5117 18.1133 16.1758 18.25 15.8242 18.25C15.0937 18.25 14.5 17.6563 14.5 16.9258V14.5H9.5C8.80859 14.5 8.25 13.9414 8.25 13.25V10.75C8.25 10.0586 8.80859 9.5 9.5 9.5H14.5V7.07422C14.5 6.34375 15.0937 5.75 15.8242 5.75C16.1758 5.75 16.5117 5.89063 16.7617 6.13672ZM8.25 5.75H5.75C5.05859 5.75 4.5 6.30859 4.5 7V17C4.5 17.6914 5.05859 18.25 5.75 18.25H8.25C8.94141 18.25 9.5 18.8086 9.5 19.5C9.5 20.1914 8.94141 20.75 8.25 20.75H5.75C3.67969 20.75 2 19.0703 2 17V7C2 4.92969 3.67969 3.25 5.75 3.25H8.25C8.94141 3.25 9.5 3.80859 9.5 4.5C9.5 5.19141 8.94141 5.75 8.25 5.75Z"/>
</svg>
