<svg width="24" height="24" viewBox="0 0 24 24" xmlns="http://www.w3.org/2000/svg">
<g clip-path="url(#clip0_191_28)">
<path d="M12.7305 3.25C7.90625 3.25 4 7.16797 4 12C4 16.832 7.90625 20.75 12.7305 20.75C15.0977 20.75 17.2422 19.8047 18.8164 18.2734C19.0117 18.082 19.0625 17.7852 18.9375 17.543C18.8125 17.3008 18.543 17.1641 18.2734 17.2109C17.8906 17.2773 17.5 17.3125 17.0977 17.3125C13.3125 17.3125 10.2422 14.2344 10.2422 10.4375C10.2422 7.86719 11.6484 5.62891 13.7305 4.44922C13.9688 4.3125 14.0898 4.03906 14.0312 3.77344C13.9727 3.50781 13.7461 3.30859 13.4727 3.28516C13.2266 3.26563 12.9805 3.25391 12.7305 3.25391V3.25Z" />
</g>
</svg>
