<svg width="28" height="26" viewBox="0 0 28 26" fill="none" xmlns="http://www.w3.org/2000/svg">
<path d="M14.0957 10H11.4023L7.05469 2.43945H6.99316C7.01139 2.75391 7.02734 3.07064 7.04102 3.38965C7.05469 3.70866 7.06836 4.02767 7.08203 4.34668C7.0957 4.66113 7.10938 4.97786 7.12305 5.29688V10H5.22949V0.00585938H7.90234L12.2432 7.49121H12.291C12.2819 7.18132 12.2705 6.8737 12.2568 6.56836C12.2432 6.26302 12.2295 5.95768 12.2158 5.65234C12.2067 5.34701 12.1976 5.04167 12.1885 4.73633V0.00585938H14.0957V10ZM23.3994 6.16504C23.3994 6.80306 23.3128 7.36816 23.1396 7.86035C22.971 8.35254 22.7227 8.76953 22.3945 9.11133C22.071 9.44857 21.679 9.70378 21.2188 9.87695C20.763 10.0501 20.248 10.1367 19.6738 10.1367C19.1361 10.1367 18.6416 10.0501 18.1904 9.87695C17.7438 9.70378 17.3542 9.44857 17.0215 9.11133C16.6934 8.76953 16.4382 8.35254 16.2559 7.86035C16.0781 7.36816 15.9893 6.80306 15.9893 6.16504C15.9893 5.31738 16.1396 4.59961 16.4404 4.01172C16.7412 3.42383 17.1696 2.97721 17.7256 2.67188C18.2816 2.36654 18.9447 2.21387 19.7148 2.21387C20.4303 2.21387 21.0638 2.36654 21.6152 2.67188C22.1712 2.97721 22.6064 3.42383 22.9209 4.01172C23.2399 4.59961 23.3994 5.31738 23.3994 6.16504ZM18.1152 6.16504C18.1152 6.66634 18.1699 7.08789 18.2793 7.42969C18.3887 7.77148 18.5596 8.02897 18.792 8.20215C19.0244 8.37533 19.3275 8.46191 19.7012 8.46191C20.0703 8.46191 20.3688 8.37533 20.5967 8.20215C20.8291 8.02897 20.9977 7.77148 21.1025 7.42969C21.2119 7.08789 21.2666 6.66634 21.2666 6.16504C21.2666 5.65918 21.2119 5.23991 21.1025 4.90723C20.9977 4.56999 20.8291 4.31706 20.5967 4.14844C20.3643 3.97982 20.0612 3.89551 19.6875 3.89551C19.1361 3.89551 18.735 4.08464 18.4844 4.46289C18.2383 4.84115 18.1152 5.40853 18.1152 6.16504ZM0.40332 25V15.0059H2.52246V25H0.40332ZM7.97754 25.1367C7.22103 25.1367 6.57617 25 6.04297 24.7266C5.50977 24.4486 5.10417 24.0202 4.82617 23.4414C4.54818 22.8626 4.40918 22.1221 4.40918 21.2197C4.40918 20.2855 4.56641 19.5244 4.88086 18.9365C5.19987 18.3441 5.63965 17.9089 6.2002 17.6309C6.7653 17.3529 7.41927 17.2139 8.16211 17.2139C8.69076 17.2139 9.14648 17.2663 9.5293 17.3711C9.91667 17.4714 10.2539 17.5921 10.541 17.7334L9.92578 19.3467C9.59766 19.2145 9.29232 19.1074 9.00977 19.0254C8.72721 18.9388 8.44466 18.8955 8.16211 18.8955C7.79753 18.8955 7.49447 18.9821 7.25293 19.1553C7.01139 19.3239 6.83138 19.5791 6.71289 19.9209C6.5944 20.2627 6.53516 20.6911 6.53516 21.2061C6.53516 21.7119 6.59896 22.1312 6.72656 22.4639C6.85417 22.7965 7.03874 23.0449 7.28027 23.209C7.52181 23.3685 7.81576 23.4482 8.16211 23.4482C8.59505 23.4482 8.98014 23.3913 9.31738 23.2773C9.65462 23.1589 9.98275 22.9948 10.3018 22.7852V24.5693C9.98275 24.7699 9.64779 24.9134 9.29688 25C8.95052 25.0911 8.51074 25.1367 7.97754 25.1367ZM19.0244 21.165C19.0244 21.8031 18.9378 22.3682 18.7646 22.8604C18.596 23.3525 18.3477 23.7695 18.0195 24.1113C17.696 24.4486 17.304 24.7038 16.8438 24.877C16.388 25.0501 15.873 25.1367 15.2988 25.1367C14.7611 25.1367 14.2666 25.0501 13.8154 24.877C13.3688 24.7038 12.9792 24.4486 12.6465 24.1113C12.3184 23.7695 12.0632 23.3525 11.8809 22.8604C11.7031 22.3682 11.6143 21.8031 11.6143 21.165C11.6143 20.3174 11.7646 19.5996 12.0654 19.0117C12.3662 18.4238 12.7946 17.9772 13.3506 17.6719C13.9066 17.3665 14.5697 17.2139 15.3398 17.2139C16.0553 17.2139 16.6888 17.3665 17.2402 17.6719C17.7962 17.9772 18.2314 18.4238 18.5459 19.0117C18.8649 19.5996 19.0244 20.3174 19.0244 21.165ZM13.7402 21.165C13.7402 21.6663 13.7949 22.0879 13.9043 22.4297C14.0137 22.7715 14.1846 23.029 14.417 23.2021C14.6494 23.3753 14.9525 23.4619 15.3262 23.4619C15.6953 23.4619 15.9938 23.3753 16.2217 23.2021C16.4541 23.029 16.6227 22.7715 16.7275 22.4297C16.8369 22.0879 16.8916 21.6663 16.8916 21.165C16.8916 20.6592 16.8369 20.2399 16.7275 19.9072C16.6227 19.57 16.4541 19.3171 16.2217 19.1484C15.9893 18.9798 15.6862 18.8955 15.3125 18.8955C14.7611 18.8955 14.36 19.0846 14.1094 19.4629C13.8633 19.8411 13.7402 20.4085 13.7402 21.165ZM25.0879 17.2139C25.9036 17.2139 26.5599 17.4372 27.0566 17.8838C27.5534 18.3258 27.8018 19.0368 27.8018 20.0166V25H25.7168V20.5361C25.7168 19.9893 25.6165 19.5768 25.416 19.2988C25.2201 19.0208 24.9102 18.8818 24.4863 18.8818C23.8483 18.8818 23.4131 19.0983 23.1807 19.5312C22.9482 19.9642 22.832 20.5885 22.832 21.4043V25H20.7471V17.3574H22.3398L22.6201 18.335H22.7363C22.9004 18.0706 23.1032 17.8564 23.3447 17.6924C23.5908 17.5283 23.862 17.4076 24.1582 17.3301C24.459 17.2526 24.7689 17.2139 25.0879 17.2139Z" fill="white"/>
</svg>
