<svg width="24" height="24" viewBox="0 0 24 24" xmlns="http://www.w3.org/2000/svg">
<g clip-path="url(#clip0_103_11)">
<path d="M19.5008 2.80532C18.6881 1.99263 17.3744 1.99263 16.5617 2.80532L15.4447 3.9186L19.0777 7.55161L20.1947 6.43462C21.0074 5.62192 21.0074 4.30825 20.1947 3.49556L19.5008 2.80532ZM8.39766 10.9694C8.17129 11.1958 7.99687 11.4741 7.89668 11.7821L6.79824 15.0774C6.69062 15.3965 6.77598 15.7491 7.01348 15.9903C7.25098 16.2315 7.60351 16.3131 7.92637 16.2055L11.2217 15.1071C11.526 15.0069 11.8043 14.8325 12.0344 14.6061L18.2428 8.39399L14.6061 4.75728L8.39766 10.9694ZM5.5625 4.37505C3.5957 4.37505 2 5.97075 2 7.93755V17.4375C2 19.4043 3.5957 21 5.5625 21H15.0625C17.0293 21 18.625 19.4043 18.625 17.4375V13.875C18.625 13.2182 18.0943 12.6875 17.4375 12.6875C16.7807 12.6875 16.25 13.2182 16.25 13.875V17.4375C16.25 18.0944 15.7193 18.625 15.0625 18.625H5.5625C4.90566 18.625 4.375 18.0944 4.375 17.4375V7.93755C4.375 7.28071 4.90566 6.75005 5.5625 6.75005H9.125C9.78184 6.75005 10.3125 6.21938 10.3125 5.56255C10.3125 4.90571 9.78184 4.37505 9.125 4.37505H5.5625Z" />
</g>
<defs>
<clipPath id="clip0_103_11">
<rect width="19" height="19" fill="white" transform="translate(2 2)"/>
</clipPath>
</defs>
</svg>
