<svg width="19" height="19" viewBox="0 0 19 19" xmlns="http://www.w3.org/2000/svg">
<path d="M12.8116 2.16367L11.3133 3.66193L15.3378 7.68618L16.8362 6.18792C17.6102 5.41402 17.6102 4.16032 16.8362 3.38642L15.6165 2.16367C14.8425 1.38978 13.5887 1.38978 12.8147 2.16367H12.8116ZM10.6136 4.36153L3.39727 11.5804C3.0753 11.9023 2.84002 12.3017 2.71 12.7382L1.61408 16.4621C1.53668 16.7253 1.60789 17.007 1.79983 17.1989C1.99177 17.3908 2.27349 17.462 2.53354 17.3877L6.2578 16.2919C6.69431 16.1619 7.09367 15.9266 7.41564 15.6047L14.6382 8.38578L10.6136 4.36153Z" />
</svg>
