<svg width="24" height="24" viewBox="0 0 24 24" fill="none" xmlns="http://www.w3.org/2000/svg">
<g clip-path="url(#clip0_87_29)">
<path d="M9.4 3H19.9C21.0583 3 22 3.95293 22 5.125V12.5625C22 13.7346 21.0583 14.6875 19.9 14.6875H9.4C8.24172 14.6875 7.3 13.7346 7.3 12.5625V5.125C7.3 3.95293 8.24172 3 9.4 3ZM16.6187 6.54277C16.4711 6.32031 16.225 6.1875 15.9625 6.1875C15.7 6.1875 15.4539 6.32031 15.3062 6.54277L13.4687 9.33184L12.9011 8.61133C12.7502 8.42207 12.5237 8.3125 12.2875 8.3125C12.0512 8.3125 11.8216 8.42207 11.6739 8.61133L9.57391 11.2676C9.38359 11.5066 9.3475 11.8354 9.47875 12.1109C9.61 12.3865 9.88562 12.5625 10.1875 12.5625H12.8125H14.3875H19.1125C19.4045 12.5625 19.6703 12.3998 19.8081 12.1408C19.9459 11.8818 19.9295 11.5664 19.7687 11.324L16.6187 6.54277ZM12.025 6.1875C12.025 5.90571 11.9144 5.63546 11.7175 5.4362C11.5205 5.23694 11.2535 5.125 10.975 5.125C10.6965 5.125 10.4295 5.23694 10.2325 5.4362C10.0356 5.63546 9.925 5.90571 9.925 6.1875C9.925 6.46929 10.0356 6.73954 10.2325 6.9388C10.4295 7.13806 10.6965 7.25 10.975 7.25C11.2535 7.25 11.5205 7.13806 11.7175 6.9388C11.9144 6.73954 12.025 6.46929 12.025 6.1875ZM3.1 7.25H6.25V15.75V16.8125C6.25 17.4002 6.71922 17.875 7.3 17.875H11.5C12.0808 17.875 12.55 17.4002 12.55 16.8125V15.75H17.8V17.875C17.8 19.0471 16.8583 20 15.7 20H3.1C1.94172 20 1 19.0471 1 17.875V9.375C1 8.20293 1.94172 7.25 3.1 7.25ZM3.3625 9.375C3.07375 9.375 2.8375 9.61406 2.8375 9.90625V10.4375C2.8375 10.7297 3.07375 10.9688 3.3625 10.9688H3.8875C4.17625 10.9688 4.4125 10.7297 4.4125 10.4375V9.90625C4.4125 9.61406 4.17625 9.375 3.8875 9.375H3.3625ZM3.3625 12.8281C3.07375 12.8281 2.8375 13.0672 2.8375 13.3594V13.8906C2.8375 14.1828 3.07375 14.4219 3.3625 14.4219H3.8875C4.17625 14.4219 4.4125 14.1828 4.4125 13.8906V13.3594C4.4125 13.0672 4.17625 12.8281 3.8875 12.8281H3.3625ZM3.3625 16.2812C3.07375 16.2812 2.8375 16.5203 2.8375 16.8125V17.3438C2.8375 17.6359 3.07375 17.875 3.3625 17.875H3.8875C4.17625 17.875 4.4125 17.6359 4.4125 17.3438V16.8125C4.4125 16.5203 4.17625 16.2812 3.8875 16.2812H3.3625ZM14.3875 16.8125V17.3438C14.3875 17.6359 14.6237 17.875 14.9125 17.875H15.4375C15.7262 17.875 15.9625 17.6359 15.9625 17.3438V16.8125C15.9625 16.5203 15.7262 16.2812 15.4375 16.2812H14.9125C14.6237 16.2812 14.3875 16.5203 14.3875 16.8125Z" fill="black"/>
</g>
<defs>
<clipPath id="clip0_87_29">
<rect width="21" height="17" fill="white" transform="translate(1 3)"/>
</clipPath>
</defs>
</svg>
