<svg width="24" height="24" viewBox="0 0 24 24" xmlns="http://www.w3.org/2000/svg">
<path d="M6.83333 3.1875C5.54635 3.1875 4.5 4.25254 4.5 5.5625V13.875C4.5 15.185 5.54635 16.25 6.83333 16.25H19.6667C20.9536 16.25 22 15.185 22 13.875V5.5625C22 4.25254 20.9536 3.1875 19.6667 3.1875H6.83333ZM15.4375 7.14707L18.9375 12.4908C19.1161 12.7654 19.1344 13.1143 18.9812 13.4037C18.8281 13.6932 18.5328 13.875 18.2083 13.875H12.9583H11.2083H8.29167C7.95625 13.875 7.65 13.6783 7.50417 13.3703C7.35833 13.0623 7.39844 12.6949 7.6099 12.4277L9.94323 9.45898C10.1109 9.24746 10.3589 9.125 10.625 9.125C10.8911 9.125 11.1427 9.24746 11.3068 9.45898L11.9375 10.2605L13.9792 7.14336C14.1432 6.89844 14.4167 6.75 14.7083 6.75C15 6.75 15.2734 6.89844 15.4375 7.14707ZM8 6.75C8 6.43506 8.12292 6.13301 8.34171 5.91031C8.5605 5.68761 8.85725 5.5625 9.16667 5.5625C9.47609 5.5625 9.77283 5.68761 9.99162 5.91031C10.2104 6.13301 10.3333 6.43506 10.3333 6.75C10.3333 7.06494 10.2104 7.36699 9.99162 7.58969C9.77283 7.81239 9.47609 7.9375 9.16667 7.9375C8.85725 7.9375 8.5605 7.81239 8.34171 7.58969C8.12292 7.36699 8 7.06494 8 6.75ZM2.75 6.45312C2.75 5.95957 2.3599 5.5625 1.875 5.5625C1.3901 5.5625 1 5.95957 1 6.45312V14.7656C1 17.5525 3.22031 19.8125 5.95833 19.8125H17.625C18.1099 19.8125 18.5 19.4154 18.5 18.9219C18.5 18.4283 18.1099 18.0312 17.625 18.0312H5.95833C4.18646 18.0312 2.75 16.5691 2.75 14.7656V6.45312Z" />
</svg>
