<svg width="22" height="24" viewBox="0 0 22 24" fill="none" xmlns="http://www.w3.org/2000/svg">
<g clip-path="url(#clip0_59_5)">
<path d="M12.0595 1.94067C11.4735 1.35474 10.522 1.35474 9.93604 1.94067L2.43604 9.44067C1.8501 10.0266 1.8501 10.9782 2.43604 11.5641C3.02197 12.15 3.97354 12.15 4.55947 11.5641L9.5001 6.6188V21C9.5001 21.8297 10.1704 22.5 11.0001 22.5C11.8298 22.5 12.5001 21.8297 12.5001 21V6.62349L17.4407 11.5594C18.0267 12.1454 18.9782 12.1454 19.5642 11.5594C20.1501 10.9735 20.1501 10.0219 19.5642 9.43599L12.0642 1.93599L12.0595 1.94067Z" fill="white"/>
</g>
<defs>
<clipPath id="clip0_59_5">
<rect width="18" height="24" fill="white" transform="translate(2)"/>
</clipPath>
</defs>
</svg>
