<svg width="24" height="24" viewBox="0 0 24 24" xmlns="http://www.w3.org/2000/svg">
<path d="M16.1205 2.04831C16.3158 2.13033 16.4564 2.30609 16.4954 2.51309L17.2727 6.72733L21.4869 7.50065C21.6939 7.53971 21.8697 7.68031 21.9517 7.8756C22.0337 8.07088 22.0103 8.2935 21.8892 8.46926L19.456 12L21.8892 15.5268C22.0103 15.7026 22.0337 15.9252 21.9517 16.1205C21.8697 16.3158 21.6939 16.4564 21.4869 16.4954L17.2727 17.2727L16.4954 21.4869C16.4564 21.6939 16.3158 21.8697 16.1205 21.9517C15.9252 22.0337 15.7026 22.0103 15.5268 21.8892L12 19.456L8.47317 21.8892C8.29741 22.0103 8.07479 22.0337 7.8795 21.9517C7.68422 21.8697 7.54361 21.6939 7.50456 21.4869L6.72733 17.2727L2.51309 16.4954C2.30609 16.4564 2.13033 16.3158 2.04831 16.1205C1.96629 15.9252 1.98973 15.7026 2.11081 15.5268L4.54405 12L2.11081 8.47317C1.98973 8.29741 1.96629 8.07479 2.04831 7.8795C2.13033 7.68422 2.30609 7.54361 2.51309 7.50456L6.72733 6.72733L7.50456 2.51309C7.54361 2.30609 7.68422 2.13033 7.8795 2.04831C8.07479 1.96629 8.29741 1.98973 8.47317 2.11081L12 4.54405L15.5268 2.11081C15.7026 1.98973 15.9252 1.96629 16.1205 2.04831ZM8.25054 12C8.25054 11.0056 8.64557 10.0519 9.34873 9.34873C10.0519 8.64557 11.0056 8.25054 12 8.25054C12.9944 8.25054 13.9481 8.64557 14.6513 9.34873C15.3544 10.0519 15.7495 11.0056 15.7495 12C15.7495 12.9944 15.3544 13.9481 14.6513 14.6513C13.9481 15.3544 12.9944 15.7495 12 15.7495C11.0056 15.7495 10.0519 15.3544 9.34873 14.6513C8.64557 13.9481 8.25054 12.9944 8.25054 12ZM16.9993 12C16.9993 10.6741 16.4726 9.40252 15.535 8.46498C14.5975 7.52743 13.3259 7.00072 12 7.00072C10.6741 7.00072 9.40252 7.52743 8.46498 8.46498C7.52743 9.40252 7.00072 10.6741 7.00072 12C7.00072 13.3259 7.52743 14.5975 8.46498 15.535C9.40252 16.4726 10.6741 16.9993 12 16.9993C13.3259 16.9993 14.5975 16.4726 15.535 15.535C16.4726 14.5975 16.9993 13.3259 16.9993 12Z"/>
</svg>
