<svg width="24" height="24" viewBox="0 0 24 24" xmlns="http://www.w3.org/2000/svg">
<path d="M14 6.992V13.9734H4V6.992H14ZM4 4.99731C2.89688 4.99731 2 5.8918 2 6.992V13.9734C2 15.0736 2.89688 15.9681 4 15.9681H7.66563L7.33125 16.9654H5C4.44687 16.9654 4 17.4111 4 17.9627C4 18.5144 4.44687 18.9601 5 18.9601H13C13.5531 18.9601 14 18.5144 14 17.9627C14 17.4111 13.5531 16.9654 13 16.9654H10.6656L10.3313 15.9681H14C15.1031 15.9681 16 15.0736 16 13.9734V6.992C16 5.8918 15.1031 4.99731 14 4.99731H4ZM18.5 4.99731C17.6719 4.99731 17 5.6674 17 6.49332V17.4641C17 18.29 17.6719 18.9601 18.5 18.9601H20.5C21.3281 18.9601 22 18.29 22 17.4641V6.49332C22 5.6674 21.3281 4.99731 20.5 4.99731H18.5ZM19 6.992H20C20.275 6.992 20.5 7.2164 20.5 7.49067C20.5 7.76493 20.275 7.98934 20 7.98934H19C18.725 7.98934 18.5 7.76493 18.5 7.49067C18.5 7.2164 18.725 6.992 19 6.992ZM18.5 9.48535C18.5 9.21108 18.725 8.98668 19 8.98668H20C20.275 8.98668 20.5 9.21108 20.5 9.48535C20.5 9.75961 20.275 9.98402 20 9.98402H19C18.725 9.98402 18.5 9.75961 18.5 9.48535ZM19.5 14.472C19.7652 14.472 20.0196 14.5771 20.2071 14.7642C20.3946 14.9512 20.5 15.2049 20.5 15.4694C20.5 15.7339 20.3946 15.9876 20.2071 16.1746C20.0196 16.3617 19.7652 16.4667 19.5 16.4667C19.2348 16.4667 18.9804 16.3617 18.7929 16.1746C18.6054 15.9876 18.5 15.7339 18.5 15.4694C18.5 15.2049 18.6054 14.9512 18.7929 14.7642C18.9804 14.5771 19.2348 14.472 19.5 14.472Z" />
</svg>
