<svg width="24" height="24" viewBox="0 0 24 24" xmlns="http://www.w3.org/2000/svg">
<path d="M8.13036 2.69141C8.33527 2.26563 8.75647 2 9.21563 2H13.7844C14.2435 2 14.6647 2.26563 14.8696 2.69141L15.1429 3.25H18.7857C19.4574 3.25 20 3.80859 20 4.5C20 5.19141 19.4574 5.75 18.7857 5.75H4.21429C3.54263 5.75 3 5.19141 3 4.5C3 3.80859 3.54263 3.25 4.21429 3.25H7.85714L8.13036 2.69141ZM4.21429 7H18.7857V19.5C18.7857 20.8789 17.6967 22 16.3571 22H6.64286C5.30335 22 4.21429 20.8789 4.21429 19.5V7ZM7.85714 9.5C7.52321 9.5 7.25 9.78125 7.25 10.125V18.875C7.25 19.2188 7.52321 19.5 7.85714 19.5C8.19107 19.5 8.46429 19.2188 8.46429 18.875V10.125C8.46429 9.78125 8.19107 9.5 7.85714 9.5ZM11.5 9.5C11.1661 9.5 10.8929 9.78125 10.8929 10.125V18.875C10.8929 19.2188 11.1661 19.5 11.5 19.5C11.8339 19.5 12.1071 19.2188 12.1071 18.875V10.125C12.1071 9.78125 11.8339 9.5 11.5 9.5ZM15.1429 9.5C14.8089 9.5 14.5357 9.78125 14.5357 10.125V18.875C14.5357 19.2188 14.8089 19.5 15.1429 19.5C15.4768 19.5 15.75 19.2188 15.75 18.875V10.125C15.75 9.78125 15.4768 9.5 15.1429 9.5Z" />
</svg>
