<svg width="24" height="24" viewBox="0 0 24 24" xmlns="http://www.w3.org/2000/svg">
<g clip-path="url(#clip0_103_11)">
<path d="M3.6 6.75C3.6 5.49022 4.10571 4.28204 5.00589 3.39124C5.90606 2.50045 7.12696 2 8.4 2C9.67304 2 10.8939 2.50045 11.7941 3.39124C12.6943 4.28204 13.2 5.49022 13.2 6.75C13.2 8.00978 12.6943 9.21796 11.7941 10.1088C10.8939 10.9996 9.67304 11.5 8.4 11.5C7.12696 11.5 5.90606 10.9996 5.00589 10.1088C4.10571 9.21796 3.6 8.00978 3.6 6.75ZM0 19.8979C0 16.2426 2.9925 13.2812 6.68625 13.2812H10.1138C13.8075 13.2812 16.8 16.2426 16.8 19.8979C16.8 20.5064 16.3013 21 15.6863 21H1.11375C0.49875 21 0 20.5064 0 19.8979ZM18.9 13.5781V11.2031H16.5C16.0013 11.2031 15.6 10.8061 15.6 10.3125C15.6 9.81895 16.0013 9.42188 16.5 9.42188H18.9V7.04688C18.9 6.55332 19.3013 6.15625 19.8 6.15625C20.2988 6.15625 20.7 6.55332 20.7 7.04688V9.42188H23.1C23.5988 9.42188 24 9.81895 24 10.3125C24 10.8061 23.5988 11.2031 23.1 11.2031H20.7V13.5781C20.7 14.0717 20.2988 14.4688 19.8 14.4688C19.3013 14.4688 18.9 14.0717 18.9 13.5781Z" />
</g>
<defs>
<clipPath id="clip0_103_11">
<rect width="24" height="19" fill="white" transform="translate(0 2)"/>
</clipPath>
</defs>
</svg>
