<svg width="24" height="24" viewBox="0 0 24 24" xmlns="http://www.w3.org/2000/svg">
<path d="M8.7012 11.5C9.86834 11.5 10.9877 11.0522 11.813 10.2552C12.6382 9.45817 13.1019 8.37717 13.1019 7.25C13.1019 6.12283 12.6382 5.04183 11.813 4.2448C10.9877 3.44777 9.86834 3 8.7012 3C7.53407 3 6.41474 3.44777 5.58945 4.2448C4.76416 5.04183 4.30052 6.12283 4.30052 7.25C4.30052 8.37717 4.76416 9.45817 5.58945 10.2552C6.41474 11.0522 7.53407 11.5 8.7012 11.5ZM7.13002 13.0938C3.74355 13.0938 1 15.7434 1 19.0139C1 19.5584 1.45726 20 2.0211 20H12.098C11.9914 19.7078 11.9708 19.3891 12.0499 19.077L12.5656 17.0814C12.6618 16.7063 12.8612 16.3676 13.1431 16.0953L14.5287 14.7572C13.4251 13.7279 11.9261 13.0938 10.2689 13.0938H7.12658H7.13002ZM22.1027 10.826C21.5663 10.308 20.6965 10.308 20.1567 10.826L19.146 11.8021L21.587 14.1596L22.5977 13.1834C23.1341 12.6654 23.1341 11.8254 22.5977 11.3041L22.1027 10.826ZM13.9236 16.8457C13.7826 16.9818 13.6829 17.1512 13.6348 17.3404L13.1191 19.3359C13.0709 19.5186 13.126 19.7078 13.2635 19.8406C13.401 19.9734 13.597 20.0266 13.7861 19.9801L15.8523 19.482C16.0448 19.4355 16.2236 19.3393 16.3646 19.2031L20.8065 14.91L18.3655 12.5525L13.9236 16.8457Z" />
</svg>
