<svg width="28" height="28" viewBox="0 0 28 28" xmlns="http://www.w3.org/2000/svg">
<g clip-path="url(#clip0_50_2)">
<path d="M9.8 14C11.2852 14 12.7096 13.4205 13.7598 12.3891C14.81 11.3576 15.4 9.95869 15.4 8.5C15.4 7.04131 14.81 5.64236 13.7598 4.61091C12.7096 3.57946 11.2852 3 9.8 3C8.31479 3 6.89041 3.57946 5.8402 4.61091C4.79 5.64236 4.2 7.04131 4.2 8.5C4.2 9.95869 4.79 11.3576 5.8402 12.3891C6.89041 13.4205 8.31479 14 9.8 14ZM7.80062 16.0625C3.49125 16.0625 0 19.4914 0 23.7238C0 24.4285 0.581875 25 1.29938 25H14.1225C13.9869 24.6219 13.9606 24.2094 14.0612 23.8055L14.7175 21.223C14.84 20.7375 15.0938 20.2992 15.4525 19.9469L17.2156 18.2152C15.8112 16.8832 13.9038 16.0625 11.795 16.0625H7.79625H7.80062ZM26.8537 13.1277C26.1712 12.4574 25.0644 12.4574 24.3775 13.1277L23.0912 14.391L26.1975 17.4418L27.4837 16.1785C28.1663 15.5082 28.1663 14.4211 27.4837 13.7465L26.8537 13.1277ZM16.4456 20.918C16.2662 21.0941 16.1394 21.3133 16.0781 21.5582L15.4219 24.1406C15.3606 24.377 15.4306 24.6219 15.6056 24.7938C15.7806 24.9656 16.03 25.0344 16.2706 24.9742L18.9 24.3297C19.145 24.2695 19.3725 24.1449 19.5519 23.9688L25.2044 18.4129L22.0981 15.3621L16.4456 20.918Z" />
</g>
<defs>
<clipPath id="clip0_50_2">
<rect width="28" height="22" transform="translate(0 3)"/>
</clipPath>
</defs>
</svg>
