<svg width="24" height="24" viewBox="0 0 24 24" xmlns="http://www.w3.org/2000/svg">
<path d="M18.5857 7.39091C19.1323 6.84429 19.1323 5.95658 18.5857 5.40996C18.039 4.86335 17.1513 4.86335 16.6047 5.40996L12 10.0191L7.39091 5.41434C6.84429 4.86772 5.95658 4.86772 5.40996 5.41434C4.86335 5.96096 4.86335 6.84866 5.40996 7.39528L10.0191 12L5.41434 16.6091C4.86772 17.1557 4.86772 18.0434 5.41434 18.59C5.96096 19.1367 6.84866 19.1367 7.39528 18.59L12 13.9809L16.6091 18.5857C17.1557 19.1323 18.0434 19.1323 18.59 18.5857C19.1367 18.039 19.1367 17.1513 18.59 16.6047L13.9809 12L18.5857 7.39091Z"/>
</svg>
